<?xml version="1.0" encoding="UTF-8"?>
<svg version="1.1" xmlns="http://www.w3.org/2000/svg" width="3840" height="3840">
<path d="M0 0 C2.64 0 5.28 0 8 0 C9.11795154 2.23590309 9.2200297 3.68648362 9.38549805 6.171875 C9.47683769 7.48594833 9.47683769 7.48594833 9.57002258 8.8265686 C9.63328232 9.79130096 9.69654205 10.75603333 9.76171875 11.75 C9.9088266 13.85729519 10.05647715 15.96455254 10.20458984 18.07177734 C10.28263855 19.1975116 10.36068726 20.32324585 10.44110107 21.48309326 C15.97808922 100.51375804 26.32375187 179.15214713 41 257 C41.18242249 257.96774353 41.36484497 258.93548706 41.55279541 259.93255615 C57.37831258 343.57289385 78.85422161 426.00588329 105 507 C105.29241577 507.90647278 105.58483154 508.81294556 105.8861084 509.74688721 C124.51557044 567.39941707 145.86141341 624.19325896 170.02471924 679.75445557 C170.98169215 681.95784692 171.93472593 684.16289465 172.88623047 686.36865234 C180.40949676 703.80622517 188.18053636 721.1103736 196.26220703 738.29785156 C197.79261839 741.55416199 199.31233322 744.8153731 200.83016968 748.07756042 C212.81560745 773.82806469 225.20929142 799.38393669 238.62304688 824.42578125 C240.25022444 827.46779548 241.86695467 830.51528705 243.484375 833.5625 C250.92479725 847.55814256 258.54739504 861.43558387 266.40722656 875.20117188 C268.02875697 878.05053186 269.6373653 880.90682461 271.2421875 883.765625 C287.74434042 913.15064677 305.12043795 942.0460139 323.33789062 970.39941406 C324.96331054 972.94259457 326.57052836 975.49629376 328.171875 978.0546875 C346.60973964 1007.44203884 366.42591719 1036.07743004 386.71337891 1064.21435547 C388.16993801 1066.23584945 389.6219625 1068.26056907 391.07421875 1070.28515625 C403.39478116 1087.43449514 416.17582979 1104.22538776 429 1121 C429.49806152 1121.65162109 429.99612305 1122.30324219 430.50927734 1122.97460938 C439.03500868 1134.11959877 447.64172392 1145.19887905 456.5625 1156.03125 C458.40447914 1158.27468614 460.23717834 1160.52432519 462.0625 1162.78125 C467.67817305 1169.72342705 473.33037398 1176.62479082 479.12109375 1183.421875 C481.91603091 1186.70572245 484.66081109 1190.02421042 487.375 1193.375 C494.57624078 1202.21523285 502.07923161 1210.81483686 509.75 1219.25 C512.83008308 1222.64034786 515.75059757 1226.1211118 518.625 1229.6875 C521.68657725 1233.47194966 524.84563501 1236.96488014 528.33984375 1240.34765625 C530.04384226 1242.04363594 531.61714083 1243.80489696 533.1875 1245.625 C537.80537021 1250.97472018 542.6321358 1256.13108926 547.43701172 1261.31201172 C549.37036409 1263.39998396 551.29615499 1265.49483489 553.22172546 1267.58998108 C555.25041751 1269.79355583 557.28645894 1271.99026904 559.32249451 1274.1870575 C560.37992909 1275.32986633 561.43564361 1276.47427144 562.48890686 1277.6209259 C576.11660895 1292.44310676 590.4382482 1306.59151282 604.68408203 1320.81445312 C608.30266378 1324.42728931 611.91666847 1328.04466581 615.52940369 1331.66334724 C618.34328069 1334.4808493 621.15954896 1337.29595145 623.97653198 1340.11034775 C625.31038547 1341.4435399 626.64351251 1342.77745932 627.9758606 1344.11215591 C637.00370745 1353.18884204 637.00370745 1353.18884204 646.52246094 1361.74264526 C649.09873898 1363.93500382 651.40301724 1366.38169643 653.75 1368.8125 C655.70198734 1370.71026547 657.69516319 1372.49731452 659.75 1374.28125 C664.62861387 1378.51841649 669.309627 1382.95150214 674 1387.39453125 C677.99434196 1391.16263118 682.05379722 1394.83305102 686.20068359 1398.43261719 C688.43587413 1400.37968954 690.62470003 1402.37494469 692.8125 1404.375 C696.25378205 1407.48528851 699.76321298 1410.46478312 703.375 1413.375 C707.3882655 1416.61952732 711.22413126 1419.98749324 715 1423.5 C719.55594473 1427.7339621 724.25271159 1431.72931665 729.09765625 1435.62890625 C732.38962103 1438.31830412 735.60024497 1441.09148901 738.8125 1443.875 C744.03042887 1448.38467418 749.36761441 1452.69778138 754.81738281 1456.9230957 C758.82078158 1460.03877944 762.71176369 1463.26054293 766.5625 1466.5625 C772.27744619 1471.45120961 778.18596511 1476.05357212 784.17333984 1480.60302734 C786.88231443 1482.67476653 789.56875767 1484.77503835 792.25683594 1486.8737793 C809.30533244 1500.18340766 826.52326913 1513.2574816 844 1526 C844.74314453 1526.54221191 845.48628906 1527.08442383 846.25195312 1527.64306641 C857.20070934 1535.61994894 868.26048687 1543.43099029 879.37841797 1551.16992188 C882.00921681 1553.00643409 884.63220625 1554.85365242 887.25390625 1556.703125 C939.82341254 1593.68386901 994.88337362 1627.48927219 1051.0625 1658.6875 C1054.87161625 1660.80422393 1058.663081 1662.94702857 1062.4375 1665.125 C1077.51525614 1673.80633839 1092.93794124 1681.74526186 1108.4397583 1689.63337708 C1112.95445761 1691.93676323 1117.44372088 1694.28399939 1121.9213562 1696.65856934 C1132.71933916 1702.38427687 1143.63701722 1707.83658744 1154.625 1713.1875 C1155.55442413 1713.64087738 1156.48384827 1714.09425476 1157.44143677 1714.56137085 C1173.48724946 1722.38083143 1189.63830205 1729.9235406 1205.94238281 1737.1875 C1209.41214008 1738.73446934 1212.87401832 1740.29833811 1216.33427429 1741.86642456 C1266.53809322 1764.60388648 1317.98034219 1784.80873055 1370 1803 C1370.89362244 1803.31283936 1371.78724487 1803.62567871 1372.70794678 1803.94799805 C1466.66904553 1836.79712788 1562.53507718 1862.54151807 1919.47485352 1914.76049805 C1922 1915 1922 1915 1924 1916 C1924 1918.64 1924 1921.28 1924 1924 C1921.76826316 1925.11586842 1920.32431204 1925.21971138 1917.84399414 1925.38549805 C1916.97103195 1925.44640625 1916.09806976 1925.50731445 1915.19865417 1925.57006836 C1913.7564727 1925.6649353 1913.7564727 1925.6649353 1912.28515625 1925.76171875 C1910.1846978 1925.90859474 1908.08427637 1926.05600083 1905.98388672 1926.20385742 C1904.86044861 1926.28187592 1903.7370105 1926.35989441 1902.57952881 1926.4402771 C1812.60459638 1932.76489511 1723.27543499 1945.18344464 1634.93804932 1963.39440918 C1632.08081443 1963.98334253 1629.22280876 1964.5684197 1626.36474609 1965.15332031 C1530.52507619 1984.85087047 1435.8814839 2012.24687276 1210.18579102 2101.01550293 C1208.05037019 2101.97731288 1205.91322235 2102.93516387 1203.77539062 2103.89160156 C1159.6819789 2123.62922724 1116.15932654 2144.98429631 1073.89550781 2168.39990234 C1071.22390453 2169.87626726 1068.54771309 2171.34399335 1065.86953735 2172.80839539 C1050.79780239 2181.04983569 1035.84270337 2189.45587561 1021.05273438 2198.19628906 C1017.84527315 2200.0914205 1014.63366011 2201.97939455 1011.421875 2203.8671875 C979.42212729 2222.71230451 948.14828894 2242.59961375 917.125 2263 C916.16152649 2263.63255707 915.19805298 2264.26511414 914.2053833 2264.9168396 C900.62319114 2273.81941619 900.62319114 2273.81941619 887.39453125 2283.23291016 C882.98261847 2286.48876504 878.44888947 2289.57179856 873.9375 2292.6875 C859.06348785 2303.00220206 844.42666032 2313.60198757 829.98095703 2324.50732422 C827.95811703 2326.03155934 825.93096406 2327.5498742 823.90234375 2329.06640625 C811.99120572 2337.97139992 800.20274263 2347.01970715 788.5234375 2356.2265625 C786.22155692 2358.04089639 783.91439371 2359.84808591 781.6015625 2361.6484375 C772.91043962 2368.42357417 764.3946522 2375.39783788 755.90673828 2382.42529297 C753.36440925 2384.52491169 750.80755092 2386.60646512 748.25 2388.6875 C742.65958983 2393.25609804 737.15438129 2397.92238514 731.65283203 2402.59716797 C729.49543248 2404.42824889 727.33311032 2406.25346426 725.17089844 2408.07885742 C722.44412804 2410.38220855 719.72144871 2412.69036505 717 2415 C716.42072754 2415.49145508 715.84145508 2415.98291016 715.24462891 2416.48925781 C708.20198448 2422.47194674 701.25253614 2428.52742319 694.44140625 2434.7734375 C692.33845167 2436.69133207 690.21330844 2438.57376045 688.0625 2440.4375 C683.66803801 2444.25445569 679.39983768 2448.20667171 675.125 2452.15625 C672.81206261 2454.27917591 670.45937245 2456.35063252 668.08984375 2458.41015625 C664.16373088 2461.83351812 660.35039197 2465.36245524 656.5625 2468.9375 C655.68561523 2469.76217773 655.68561523 2469.76217773 654.79101562 2470.60351562 C653.40839824 2471.90422105 652.02779135 2473.20706469 650.6484375 2474.51123047 C648.70937803 2476.33338868 646.76171541 2478.14318858 644.8046875 2479.94580078 C630.55512908 2493.13874857 616.90355955 2506.94398886 603.18554688 2520.68408203 C599.57271069 2524.30266378 595.95533419 2527.91666847 592.33665276 2531.52940369 C589.5191507 2534.34328069 586.70404855 2537.15954896 583.88965225 2539.97653198 C582.5564601 2541.31038547 581.22254068 2542.64351251 579.88784409 2543.9758606 C570.82091005 2552.99222421 570.82091005 2552.99222421 562.27871704 2562.50109863 C560.46895365 2564.62248806 558.50030509 2566.55940551 556.5 2568.5 C553.21896632 2571.74256259 550.14540004 2575.07047022 547.14453125 2578.5703125 C544.16551764 2581.94544268 541.08053736 2585.21765093 538 2588.5 C533.80019596 2592.97931691 529.63304641 2597.46855631 525.62890625 2602.125 C523.66334911 2604.38751181 521.64326691 2606.59690683 519.625 2608.8125 C516.51471149 2612.25378205 513.53521688 2615.76321298 510.625 2619.375 C507.38047268 2623.3882655 504.01250676 2627.22413126 500.5 2631 C496.2660379 2635.55594473 492.27068335 2640.25271159 488.37109375 2645.09765625 C485.68169588 2648.38962103 482.90851099 2651.60024497 480.125 2654.8125 C475.61532582 2660.03042887 471.30221862 2665.36761441 467.0769043 2670.81738281 C463.96122641 2674.82077407 460.73959832 2678.71189001 457.4375 2682.5625 C452.94223031 2687.8139907 448.69012869 2693.21231275 444.5078125 2698.71484375 C442.00353986 2702.0086552 439.4420882 2705.25507186 436.875 2708.5 C421.13972561 2728.45914739 406.05885797 2748.91198796 391.21484375 2769.5390625 C389.06989196 2772.5194303 386.91593592 2775.49293642 384.75390625 2778.4609375 C379.40432312 2785.81296762 374.12830938 2793.20502475 369.0078125 2800.71875 C368.45380768 2801.53025009 367.89980286 2802.34175018 367.32901001 2803.17784119 C365.55097785 2805.78407679 363.77510286 2808.39176848 362 2811 C361.40900513 2811.86819366 360.81801025 2812.73638733 360.20910645 2813.63088989 C356.54239451 2819.02048842 352.88451779 2824.41598914 349.23339844 2829.81616211 C347.99251002 2831.64994479 346.74999091 2833.48262505 345.50585938 2835.31420898 C337.74086719 2846.74724525 330.2639618 2858.28864533 323.13580322 2870.1288147 C320.58872238 2874.32501712 317.91161565 2878.43850826 315.25 2882.5625 C307.57114761 2894.55275594 300.26865625 2906.75815687 293 2919 C291.90900181 2920.82951513 290.81786157 2922.65894557 289.7265625 2924.48828125 C276.98747636 2945.89182656 264.67132076 2967.51638296 252.90722656 2989.47094727 C251.39814508 2992.27402599 249.86830588 2995.06534974 248.33496094 2997.85522461 C241.26111609 3010.73646741 234.41724698 3023.7164879 227.75 3036.8125 C227.00931274 3038.26493103 227.00931274 3038.26493103 226.25366211 3039.7467041 C212.4662617 3066.79819883 199.30242904 3094.08160912 186.88867188 3121.79003906 C185.62989683 3124.59921679 184.36551405 3127.40575454 183.09570312 3130.20996094 C165.28231236 3169.55239994 149.00863129 3209.50665941 134 3250 C133.7170105 3250.76258118 133.434021 3251.52516235 133.14245605 3252.31085205 C100.87836209 3339.34936668 74.46332637 3428.37596931 49 3543 C48.81475769 3543.87720703 48.62951538 3544.75441406 48.43865967 3545.65820312 C29.14104347 3637.1209285 16.84451813 3729.80516699 9.23950195 3835.49462891 C9 3838 9 3838 8 3840 C5.36 3840 2.72 3840 0 3840 C-1.11795154 3837.76409691 -1.2200297 3836.31351638 -1.38549805 3833.828125 C-1.44639114 3832.95207611 -1.50728424 3832.07602722 -1.57002258 3831.1734314 C-1.63328232 3830.20869904 -1.69654205 3829.24396667 -1.76171875 3828.25 C-1.9088266 3826.14270481 -2.05647715 3824.03544746 -2.20458984 3821.92822266 C-2.3216629 3820.23962128 -2.3216629 3820.23962128 -2.44110107 3818.51690674 C-7.97808922 3739.48624196 -18.32375187 3660.84785287 -33 3583 C-33.18242249 3582.03225647 -33.36484497 3581.06451294 -33.55279541 3580.06744385 C-40.0943688 3545.49420357 -47.72729701 3511.19834222 -56 3477 C-56.24729858 3475.97708862 -56.49459717 3474.95417725 -56.74938965 3473.90026855 C-68.30710553 3426.23367599 -81.93688518 3379.04530988 -97.20361328 3332.43670654 C-98.01499488 3329.95412012 -98.82068348 3327.469747 -99.625 3324.98486328 C-117.75718807 3269.0256135 -138.77681567 3214.03704964 -162 3160 C-162.59050198 3158.62272444 -163.18099696 3157.24544587 -163.77148438 3155.86816406 C-179.13394704 3120.0889338 -195.76924996 3084.91293769 -213 3050 C-213.86093262 3048.25323975 -213.86093262 3048.25323975 -214.73925781 3046.47119141 C-220.9589656 3033.87304983 -227.38177149 3021.39313705 -234 3009 C-234.52464844 3008.01515625 -235.04929687 3007.0303125 -235.58984375 3006.015625 C-243.29147882 2991.5728359 -251.15874996 2977.23756235 -259.27539062 2963.02392578 C-261.09069596 2959.84097393 -262.89726765 2956.65316443 -264.703125 2953.46484375 C-277.65289715 2930.6453951 -290.76571489 2907.87020677 -304.93652344 2885.7824707 C-307.00331215 2882.56051848 -309.06003652 2879.33248519 -311.1081543 2876.09863281 C-318.8547014 2863.87252663 -326.70845627 2851.72253931 -334.67724609 2839.64013672 C-336.50305178 2836.87037042 -338.32389409 2834.09738438 -340.14453125 2831.32421875 C-347.71623724 2819.81776276 -355.47951276 2808.46421095 -363.43238831 2797.21795654 C-365.5194719 2794.26501817 -367.59772421 2791.30590985 -369.6758728 2788.34667969 C-384.52973722 2767.22560056 -399.7663723 2746.37213225 -415.52441406 2725.91650391 C-416.9018774 2724.1274425 -418.27588885 2722.33580198 -419.6484375 2720.54296875 C-428.92344711 2708.43608839 -438.37769448 2696.48785554 -448.015625 2684.66796875 C-450.34161088 2681.81407387 -452.64709557 2678.94508165 -454.9375 2676.0625 C-463.36301208 2665.50843749 -471.98178823 2655.11193397 -480.80932617 2644.89208984 C-483.79039454 2641.43475021 -486.69794065 2637.93030415 -489.5625 2634.375 C-493.17646255 2629.91799736 -496.99689833 2625.68745378 -500.90551758 2621.4909668 C-503.99115733 2618.15843255 -506.90175888 2614.72842561 -509.75 2611.1875 C-512.766065 2607.44156873 -515.88355668 2603.99828074 -519.3359375 2600.65625 C-521.6926032 2598.31064845 -523.83179003 2595.79684117 -526.00390625 2593.28125 C-529.76815931 2588.9792465 -533.66106667 2584.79276852 -537.53515625 2580.58984375 C-538.96260485 2579.04058621 -540.38775404 2577.48924282 -541.8125 2575.9375 C-544.86530188 2572.61598032 -547.93140403 2569.30692479 -551 2566 C-551.8672168 2565.06293213 -551.8672168 2565.06293213 -552.75195312 2564.10693359 C-561.85919868 2554.28133579 -571.19088023 2544.71416099 -580.73022461 2535.30664062 C-585.15838059 2530.9229143 -589.44429793 2526.49595783 -593.48242188 2521.74853516 C-597.16417127 2517.50646804 -601.18776364 2513.65975966 -605.47265625 2510.03515625 C-611.83238996 2504.49664721 -617.66094431 2498.39530271 -623.58203125 2492.39746094 C-629.03537246 2486.87984337 -634.48411449 2481.42677834 -640.390625 2476.38671875 C-642.36418611 2474.68619886 -644.19102387 2472.87358242 -646 2471 C-649.06117253 2467.89753998 -652.23142268 2465.01893576 -655.53515625 2462.1796875 C-658.91985028 2459.18656663 -662.20549159 2456.09172601 -665.5 2453 C-669.97933463 2448.80021349 -674.46855521 2444.63304735 -679.125 2440.62890625 C-681.38751181 2438.66334911 -683.59690683 2436.64326691 -685.8125 2434.625 C-689.25378205 2431.51471149 -692.76321298 2428.53521688 -696.375 2425.625 C-700.3882655 2422.38047268 -704.22413126 2419.01250676 -708 2415.5 C-712.55112854 2411.27051372 -717.24297098 2407.27919869 -722.08203125 2403.3828125 C-725.45974135 2400.62457534 -728.76204599 2397.78724685 -732.0625 2394.9375 C-736.72279588 2390.92224507 -741.43048727 2386.99406579 -746.2578125 2383.1796875 C-749.08475305 2380.93263219 -751.88544014 2378.65575113 -754.68359375 2376.37304688 C-762.10014292 2370.32344202 -769.57045563 2364.35106117 -777.11914062 2358.46728516 C-779.13915619 2356.89144228 -781.15552 2355.31099221 -783.171875 2353.73046875 C-810.3258645 2332.48410711 -838.16019954 2312.06558695 -866.375 2292.25146484 C-869.40292776 2290.12431505 -872.42693509 2287.99176523 -875.44824219 2285.85522461 C-886.86379118 2277.8015588 -898.42079963 2269.98979902 -910.09912109 2262.32275391 C-912.86918012 2260.50382157 -915.63596741 2258.6799959 -918.40234375 2256.85546875 C-935.33995579 2245.70117852 -952.40204344 2234.73371474 -969.6875 2224.125 C-970.75871094 2223.46701416 -971.82992187 2222.80902832 -972.93359375 2222.13110352 C-1022.77164609 2191.61616231 -1073.94253885 2163.52425505 -1126 2137 C-1127.16837402 2136.40413086 -1128.33674805 2135.80826172 -1129.54052734 2135.19433594 C-1144.28706933 2127.69303062 -1159.17628086 2120.5504953 -1174.21656799 2113.65783691 C-1178.27559743 2111.79666364 -1182.32686855 2109.91951247 -1186.37406921 2108.03276062 C-1248.26228676 2079.18699455 -1311.86346234 2054.01154499 -1376.44903564 2031.87438965 C-1378.18902759 2031.27797561 -1379.9287207 2030.68068919 -1381.66815186 2030.0826416 C-1488.4671786 1993.37573668 -1598.48078061 1966.41577666 -1901.26513672 1925.84838867 C-1902.0509613 1925.79614136 -1902.83678589 1925.74389404 -1903.64642334 1925.69006348 C-1905.7186018 1925.55376943 -1907.79117263 1925.4234768 -1909.86376953 1925.29370117 C-1913 1925 -1913 1925 -1916 1924 C-1916 1921.36 -1916 1918.72 -1916 1916 C-1913.38142864 1915.12714288 -1911.52959733 1914.80035528 -1908.82226562 1914.61450195 C-1907.96946014 1914.55360382 -1907.11665466 1914.49270569 -1906.23800659 1914.42996216 C-1905.30352692 1914.36670746 -1904.36904724 1914.30345276 -1903.40625 1914.23828125 C-1901.35364429 1914.09121398 -1899.30107437 1913.94364662 -1897.24853516 1913.7956543 C-1896.15277161 1913.71761566 -1895.05700806 1913.63957703 -1893.92803955 1913.55917358 C-1790.57068749 1906.12182402 -1687.9241256 1891.05749677 -1408.52258301 1818.82501221 C-1405.91315926 1817.97159869 -1403.30199422 1817.12369376 -1400.69042969 1816.27685547 C-1355.46366274 1801.59428492 -1310.99004278 1785.04438674 -1267 1767 C-1266.2499469 1766.69233704 -1265.4998938 1766.38467407 -1264.72711182 1766.06768799 C-1255.11886638 1762.12066736 -1245.54704696 1758.09304653 -1236 1754 C-1235.37981995 1753.7343927 -1234.75963989 1753.4687854 -1234.1206665 1753.19512939 C-1197.57802112 1737.53399566 -1161.6479739 1720.59351599 -1126 1703 C-1124.83549316 1702.42604492 -1123.67098633 1701.85208984 -1122.47119141 1701.26074219 C-1109.87304983 1695.0410344 -1097.39313705 1688.61822851 -1085 1682 C-1084.01515625 1681.47535156 -1083.0303125 1680.95070313 -1082.015625 1680.41015625 C-1067.5728359 1672.70852118 -1053.23756235 1664.84125004 -1039.02392578 1656.72460938 C-1035.84097393 1654.90930404 -1032.65316443 1653.10273235 -1029.46484375 1651.296875 C-1006.6451417 1638.34695905 -983.86968316 1625.23401202 -961.78173828 1611.06298828 C-958.56225562 1608.99778055 -955.33666988 1606.94267829 -952.10522461 1604.89624023 C-939.82089182 1597.1132556 -927.6148164 1589.21989152 -915.4753418 1581.21289062 C-912.67258258 1579.36516566 -909.86665095 1577.52232759 -907.06054688 1575.6796875 C-896.48479855 1568.71970717 -886.04671051 1561.60356292 -875.74545288 1554.24365234 C-873.37397379 1552.55395017 -870.98729105 1550.88655357 -868.59765625 1549.22265625 C-857.64897121 1541.59398553 -846.77920965 1533.86641117 -836 1526 C-835.22269531 1525.4328125 -834.44539063 1524.865625 -833.64453125 1524.28125 C-822.96644218 1516.47736109 -812.39385099 1508.54683509 -801.91650391 1500.47558594 C-800.1274425 1499.0981226 -798.33580198 1497.72411115 -796.54296875 1496.3515625 C-784.43608839 1487.07655289 -772.48785554 1477.62230552 -760.66796875 1467.984375 C-757.81407387 1465.65838912 -754.94508165 1463.35290443 -752.0625 1461.0625 C-741.50843749 1452.63698792 -731.11193397 1444.01821177 -720.89208984 1435.19067383 C-717.43475021 1432.20960546 -713.93030415 1429.30205935 -710.375 1426.4375 C-705.32191856 1422.33698767 -700.54690652 1417.98415243 -695.77734375 1413.5625 C-692.89306447 1410.90133655 -689.95662867 1408.31300992 -686.9921875 1405.7421875 C-684.63979365 1403.68499601 -682.31965034 1401.59403085 -680 1399.5 C-677.06321535 1396.84886006 -674.11397458 1394.21709829 -671.125 1391.625 C-666.1971554 1387.32918357 -661.39629105 1382.89523649 -656.58984375 1378.46484375 C-655.04058621 1377.03739515 -653.48924282 1375.61224596 -651.9375 1374.1875 C-649.2155565 1371.68580208 -646.50115691 1369.17609816 -643.79101562 1366.66162109 C-642.56927475 1365.52814666 -641.34657712 1364.39570282 -640.12304688 1363.26416016 C-630.0659565 1353.94952265 -620.29006122 1344.38109111 -610.66235352 1334.62548828 C-606.18383618 1330.10391222 -601.65219877 1325.76708445 -596.8215332 1321.62573242 C-593.79464618 1318.92421243 -591.10209904 1315.9363718 -588.375 1312.9375 C-581.03047189 1304.97133472 -573.38791003 1297.3232283 -565.67724609 1289.71459961 C-561.08515634 1285.16514419 -556.64453211 1280.57217209 -552.43945312 1275.66210938 C-550.71775806 1273.67410056 -548.89150098 1271.82627681 -547 1270 C-543.89753998 1266.93882747 -541.01893576 1263.76857732 -538.1796875 1260.46484375 C-535.18656663 1257.08014972 -532.09172601 1253.79450841 -529 1250.5 C-524.80021349 1246.02066537 -520.63304735 1241.53144479 -516.62890625 1236.875 C-514.66334911 1234.61248819 -512.64326691 1232.40309317 -510.625 1230.1875 C-507.49577173 1226.72469918 -504.49499651 1223.19320997 -501.5625 1219.5625 C-498.48663412 1215.75912497 -495.31246834 1212.09917348 -492 1208.5 C-487.96366945 1204.10971431 -484.15969471 1199.5882438 -480.4140625 1194.94921875 C-477.66137566 1191.58630845 -474.83800033 1188.29086798 -472 1185 C-466.90109144 1179.07773459 -461.92212763 1173.07035643 -457 1167 C-456.00444133 1165.78601933 -455.00831046 1164.57250776 -454.01171875 1163.359375 C-447.793946 1155.77361672 -441.7282568 1148.09512725 -435.80126953 1140.2800293 C-432.31320488 1135.6891746 -428.75164617 1131.16940141 -425.125 1126.6875 C-417.83250806 1117.64791164 -410.91660428 1108.32845644 -404 1099 C-403.09797852 1097.78425293 -403.09797852 1097.78425293 -402.17773438 1096.54394531 C-390.11695031 1080.27177271 -378.23320986 1063.87357671 -366.60742188 1047.28759766 C-364.95846 1044.94088247 -363.29967046 1042.60131336 -361.640625 1040.26171875 C-342.9419745 1013.76291546 -325.14542409 986.52738757 -308 959 C-307.38721191 958.01708984 -306.77442383 957.03417969 -306.14306641 956.02148438 C-272.56046662 902.04260222 -241.81487069 846.51769769 -212.96221924 789.88800049 C-212.09032046 788.17722061 -211.21688 786.46722666 -210.34326172 784.75732422 C-203.46939377 771.28089522 -197.01683195 757.62457364 -190.70465088 743.87705994 C-188.83135218 739.79889634 -186.94466525 735.72720633 -185.0493927 731.65921021 C-146.17970994 648.20496083 -113.12903321 561.70078256 -1.70947266 12.37939453 C-1.66595169 11.67657852 -1.62243073 10.97376251 -1.57759094 10.24964905 C-1.46596667 8.40182309 -1.36122367 6.55358492 -1.25708008 4.70532227 C-1 2 -1 2 0 0 Z " fill="#4F87D3" transform="translate(1916,0)"/>
</svg>
