<?xml version="1.0" encoding="UTF-8"?>
<svg version="1.1" xmlns="http://www.w3.org/2000/svg" width="512" height="512">
<path d="M0 0 C0.71639648 0.00304138 1.43279297 0.00608276 2.17089844 0.00921631 C13.73146818 0.081502 24.60019827 1.01371184 35.6875 4.4375 C36.39680664 4.64648926 37.10611328 4.85547852 37.83691406 5.07080078 C58.60882442 11.30798034 79.38682339 22.53389211 92.98828125 39.76953125 C96.7143978 42.07206637 99.15994466 41.39446001 103.40698242 40.8293457 C121.48225697 38.67032095 141.24531188 39.22743932 158.6875 44.4375 C159.94304687 44.77652344 161.19859375 45.11554687 162.4921875 45.46484375 C182.06511461 51.27878933 198.95596944 62.52438781 213.6875 76.4375 C214.49960937 77.17355469 215.31171875 77.90960938 216.1484375 78.66796875 C233.2651291 94.7857367 243.3097999 116.16447203 249.6875 138.4375 C250.23277344 140.34015625 250.23277344 140.34015625 250.7890625 142.28125 C255.76890012 163.6898977 253.49219367 186.662288 247.81640625 207.66015625 C247.41776857 210.53073843 247.41776857 210.53073843 249.2421875 212.90234375 C250.00789063 213.71832031 250.77359375 214.53429687 251.5625 215.375 C273.92966573 241.07640161 281.4299043 275.13077171 279.6875 308.4375 C277.08040896 338.69347756 263.44665974 366.7623365 242.0703125 388.04296875 C240.76196344 389.35775231 239.46542692 390.68636474 238.23046875 392.0703125 C223.50226935 408.28406515 198.26071558 420.47713761 176.6875 423.4375 C176.58566406 424.1078125 176.48382813 424.778125 176.37890625 425.46875 C169.59424227 454.60064054 145.37203652 479.53762376 120.8359375 494.88671875 C92.14320221 512.16453113 55.98587969 517.72704428 23.25268555 510.2722168 C1.1586865 504.63437235 -26.6163255 492.49442114 -39.90625 473.11328125 C-43.39117612 470.68627913 -45.94071403 471.51704657 -50.04345703 472.05224609 C-68.11343543 474.18177753 -87.83664739 473.55095015 -105.3125 468.4375 C-106.40208008 468.12401611 -106.40208008 468.12401611 -107.51367188 467.80419922 C-137.09787562 458.9962349 -162.83652644 439.5209645 -179.3125 413.4375 C-179.70276367 412.82181152 -180.09302734 412.20612305 -180.49511719 411.57177734 C-198.28260718 382.98421613 -203.96091609 348.85511428 -197.15625 315.84765625 C-196.3125 312.4375 -196.3125 312.4375 -195.28125 309.68359375 C-194.32839628 306.93531657 -193.90041145 305.33117675 -194.3125 302.4375 C-196.67281624 298.73890737 -199.37138507 295.5188338 -202.22265625 292.1953125 C-222.48092569 268.30543105 -227.68273762 234.65639636 -226.3125 204.4375 C-223.44053163 170.30155377 -206.299722 138.41750343 -180.51953125 116.05859375 C-165.8299339 103.81196498 -143.03645852 89.4375 -123.3125 89.4375 C-123.18875 88.90125 -123.065 88.365 -122.9375 87.8125 C-115.15445554 58.23693106 -92.1964316 32.73284396 -66.3125 17.4375 C-58.30425724 12.83513121 -50.04797431 9.12240166 -41.3125 6.125 C-40.65016357 5.89458008 -39.98782715 5.66416016 -39.30541992 5.42675781 C-26.41703694 1.25667167 -13.46794244 -0.12247164 0 0 Z M-74.3125 69.4375 C-88.92853659 86.92605245 -95.43501479 109.12008031 -95.80932617 131.55297852 C-95.8369252 132.81623962 -95.86452423 134.07950073 -95.89295959 135.38104248 C-96.13726761 146.94010422 -96.26136239 158.50251915 -96.35756969 170.06366062 C-96.42982285 178.59003154 -96.55811409 187.11167516 -96.75962847 195.63599259 C-96.89712073 201.6574792 -96.96897961 207.67767804 -96.99334508 213.70067161 C-97.00970734 217.28822027 -97.05451088 220.8699412 -97.17104149 224.45575142 C-98.28613292 238.73971573 -98.28613292 238.73971573 -93.66990852 251.58000946 C-89.70407516 255.00309471 -85.34615831 256.94996646 -80.4307251 258.64504433 C-77.17303486 259.86378879 -74.41649032 261.6314212 -71.47265625 263.4765625 C-69.44023804 264.67210262 -67.40768943 265.86742108 -65.375 267.0625 C-64.32376953 267.68511719 -63.27253906 268.30773437 -62.18945312 268.94921875 C-60.68995117 269.82900391 -60.68995117 269.82900391 -59.16015625 270.7265625 C-58.27336182 271.24943848 -57.38656738 271.77231445 -56.47290039 272.31103516 C-54.4230062 273.59161332 -54.4230062 273.59161332 -52.3125 273.4375 C-52.31011165 272.68543211 -52.30772329 271.93336422 -52.30526257 271.15850639 C-52.24611514 252.8552824 -52.1705667 234.55219329 -52.07678509 216.24911308 C-52.031828 207.39785834 -51.99241313 198.54664382 -51.96606445 189.6953125 C-51.94308367 181.9800907 -51.90968475 174.26499621 -51.86379844 166.54987538 C-51.83986727 162.46512472 -51.82113782 158.38050015 -51.81488609 154.295681 C-51.80883473 150.44935941 -51.78883323 146.60336041 -51.75822449 142.75715828 C-51.74944506 141.34710112 -51.74572149 139.93700179 -51.74749184 138.52691841 C-51.74914881 136.59781364 -51.73065206 134.66872326 -51.71122742 132.73971558 C-51.70431397 131.12196889 -51.70431397 131.12196889 -51.69726086 129.47154045 C-51.1017723 124.77580194 -49.43987779 121.48435924 -45.98120117 118.27270508 C-43.25176239 116.39573212 -40.49816985 114.7024602 -37.61328125 113.07421875 C-36.50001465 112.44249756 -35.38674805 111.81077637 -34.23974609 111.15991211 C-33.35739288 110.66320511 -33.35739288 110.66320511 -32.45721436 110.15646362 C-29.94563685 108.74254564 -27.43957484 107.3189735 -24.93304443 105.89613342 C-23.63633464 105.16022457 -22.33933499 104.42482624 -21.04205322 103.68992615 C-14.73813822 100.11792196 -8.46033634 96.5012808 -2.1875 92.875 C-0.04428493 91.63669434 2.09894425 90.39841313 4.2421875 89.16015625 C5.30147461 88.5480127 6.36076172 87.93586914 7.45214844 87.30517578 C10.73973929 85.40734375 14.02968856 83.51366129 17.3203125 81.62109375 C22.72316569 78.51350028 28.11934168 75.39455417 33.51269531 72.27050781 C36.73979482 70.40730702 39.97514397 68.5589892 43.2109375 66.7109375 C45.24512014 65.53702734 47.27898876 64.36257282 49.3125 63.1875 C50.7361084 62.3819165 50.7361084 62.3819165 52.18847656 61.56005859 C53.04666992 61.06070801 53.90486328 60.56135742 54.7890625 60.046875 C55.54525879 59.61342773 56.30145508 59.17998047 57.08056641 58.73339844 C57.61085449 58.30575195 58.14114258 57.87810547 58.6875 57.4375 C58.6875 56.4475 58.6875 55.4575 58.6875 54.4375 C56.60920471 52.81733987 54.60901427 51.43619275 52.375 50.0625 C51.7363501 49.66329346 51.0977002 49.26408691 50.43969727 48.8527832 C8.22254984 22.93422734 -41.90871993 33.73202473 -74.3125 69.4375 Z M56.6875 97.4375 C55.68090332 98.02128418 54.67430664 98.60506836 53.63720703 99.20654297 C48.67690052 102.08412278 43.72425648 104.97446044 38.77734375 107.875 C32.47179343 111.56963449 26.14439366 115.22574234 19.8125 118.875 C18.21075928 119.79901611 18.21075928 119.79901611 16.57666016 120.74169922 C11.51100322 123.66276036 6.44286528 126.57936435 1.3682251 129.48478699 C-0.40434277 130.50000835 -2.17616231 131.51652339 -3.94775391 132.53344727 C-6.16338136 133.8047736 -8.38041074 135.07366121 -10.59912109 136.33959961 C-11.6092627 136.9197583 -12.6194043 137.49991699 -13.66015625 138.09765625 C-14.97512085 138.84994507 -14.97512085 138.84994507 -16.31665039 139.61743164 C-17.30528076 140.2180542 -18.29391113 140.81867676 -19.3125 141.4375 C-20.07935623 141.81575928 -20.84621246 142.19401855 -21.63630676 142.58374023 C-26.49154733 145.21185598 -26.49154733 145.21185598 -29.09489441 149.86286926 C-29.35557202 152.86228217 -29.32563727 155.73445234 -29.19140625 158.7421875 C-29.17867172 159.82130402 -29.16593719 160.90042053 -29.15281677 162.01223755 C-29.10256248 165.44797608 -28.98967944 168.87836772 -28.875 172.3125 C-28.82984332 174.64575687 -28.78878083 176.97909681 -28.75195312 179.3125 C-28.65289865 185.02264756 -28.5024476 190.72969191 -28.3125 196.4375 C-12.7126637 187.96626953 2.83569948 179.38309439 18.10424805 170.32592773 C27.7726582 164.59390063 37.53028845 159.01501385 47.27050781 153.40625 C51.75408867 150.82296934 56.23490699 148.23492385 60.71508789 145.64575195 C62.8925005 144.3891478 65.07136029 143.13504772 67.25170898 141.88354492 C72.40881326 138.92220673 77.54398048 135.93418971 82.63671875 132.86328125 C83.57539795 132.30535889 84.51407715 131.74743652 85.48120117 131.17260742 C87.21804735 130.13927404 88.94692498 129.09235839 90.6652832 128.02856445 C96.21424202 124.75507383 101.17800427 123.06451015 107.6875 123.4375 C111.21484375 124.52734375 111.21484375 124.52734375 114.625 126.375 C115.28064941 126.7248999 115.93629883 127.0747998 116.61181641 127.43530273 C125.76474953 132.41276277 134.66914429 137.86105414 143.60546875 143.21484375 C150.32053664 147.23651918 157.08810988 151.16316961 163.875 155.0625 C172.38722815 159.95836736 180.89125944 164.86739256 189.375 169.8125 C190.3647583 170.3890332 191.3545166 170.96556641 192.37426758 171.55957031 C196.75065679 174.11477049 201.1161062 176.68447506 205.44921875 179.3125 C206.15409424 179.73998535 206.85896973 180.1674707 207.58520508 180.60791016 C208.85986216 181.38444529 210.13204141 182.16506965 211.40112305 182.95068359 C214.32878393 184.86025426 214.32878393 184.86025426 217.6875 185.4375 C221.29271701 158.84902457 215.0841839 133.12267349 198.8125 111.6875 C182.94937484 91.49888549 160.43956285 78.31363758 134.9296875 74.71875 C104.79031752 72.10425044 82.31822826 82.50860214 56.6875 97.4375 Z M-157.3125 143.4375 C-158.15167969 144.11296875 -158.99085938 144.7884375 -159.85546875 145.484375 C-176.66362246 159.76479086 -188.68239364 181.39720874 -191.3125 203.4375 C-192.88765854 232.01181705 -187.57615227 257.06282412 -168.39282227 279.08056641 C-157.11155176 291.58982447 -144.13318454 299.32268972 -129.60791016 307.56396484 C-125.28280542 310.02291089 -120.97664212 312.51398886 -116.67016602 315.00537109 C-113.40966546 316.89109825 -110.14664737 318.77239427 -106.8828125 320.65234375 C-100.35763756 324.41105382 -93.83487326 328.17393095 -87.3125 331.9375 C-85.17058102 333.17319114 -83.02865391 334.40886817 -80.88671875 335.64453125 C-76.90787568 337.93999458 -72.92919227 340.23573414 -68.95071411 342.53182983 C-67.16183082 343.56423478 -65.37291283 344.59657956 -63.58398438 345.62890625 C-61.33912364 346.92435948 -59.0943281 348.2199257 -56.84960938 349.515625 C-54.86567466 350.66044465 -52.87905325 351.80062725 -50.88916016 352.93505859 C-49.30414486 353.8592754 -47.73616473 354.81448323 -46.20068359 355.81884766 C-44.23599904 357.14182532 -44.23599904 357.14182532 -41.3125 358.4375 C-37.55947462 357.28143241 -34.2300086 355.37331053 -30.8125 353.4609375 C-29.76570068 352.87586426 -28.71890137 352.29079102 -27.64038086 351.68798828 C-26.54218018 351.06907715 -25.44397949 350.45016602 -24.3125 349.8125 C-23.19431885 349.18456543 -22.0761377 348.55663086 -20.92407227 347.90966797 C-13.27244236 343.59342098 -5.71181952 339.17424132 1.6875 334.4375 C-0.71219682 331.78184213 -3.27694189 330.15751447 -6.37890625 328.390625 C-7.92288086 327.50600586 -7.92288086 327.50600586 -9.49804688 326.60351562 C-10.61244141 325.97123047 -11.72683594 325.33894531 -12.875 324.6875 C-14.04651461 324.01808653 -15.21773376 323.34815574 -16.38867188 322.67773438 C-18.82193834 321.28510003 -21.25646232 319.89470253 -23.69189453 318.50585938 C-29.24407593 315.33720234 -34.77730662 312.13570559 -40.3125 308.9375 C-42.47907709 307.68734475 -44.64574407 306.43734527 -46.8125 305.1875 C-51.14583333 302.6875 -55.47916667 300.1875 -59.8125 297.6875 C-60.8857251 297.06834717 -61.9589502 296.44919434 -63.06469727 295.8112793 C-65.22409395 294.5654423 -67.38343669 293.31951182 -69.54272461 292.07348633 C-76.20150171 288.23120759 -82.86239293 284.39262357 -89.5246582 280.55639648 C-92.79455657 278.67137382 -96.06156339 276.78142255 -99.328125 274.890625 C-103.05596498 272.73365075 -106.79380361 270.59710785 -110.546875 268.484375 C-112.07295033 267.61464239 -113.59899455 266.7448552 -115.125 265.875 C-115.794104 265.50592529 -116.46320801 265.13685059 -117.15258789 264.7565918 C-122.41649308 261.73124025 -126.35334872 258.31495385 -128.3125 252.4375 C-128.41404275 250.73763097 -128.45876252 249.03411027 -128.47071838 247.33125305 C-128.4805072 246.2753598 -128.49029602 245.21946655 -128.50038147 244.13157654 C-128.50901466 242.39449181 -128.50901466 242.39449181 -128.51782227 240.62231445 C-128.52772186 239.40268005 -128.53762146 238.18304565 -128.54782104 236.92645264 C-128.57401521 233.58170085 -128.59587461 230.23697301 -128.61582303 226.89218163 C-128.6376893 223.39677883 -128.66507485 219.90141943 -128.69187927 216.40605164 C-128.74179749 209.786931 -128.78673955 203.16778626 -128.82990164 196.5486185 C-128.87928145 189.0129926 -128.93419682 181.47741025 -128.98958123 173.94182646 C-129.1033879 158.44042454 -129.21022981 142.93898258 -129.3125 127.4375 C-137.96302299 127.4375 -151.08487783 138.36242377 -157.3125 143.4375 Z M87.83984375 157.1484375 C86.84919922 157.72964355 85.85855469 158.31084961 84.83789062 158.90966797 C83.77763672 159.53760254 82.71738281 160.16553711 81.625 160.8125 C80.55056641 161.44430176 79.47613281 162.07610352 78.36914062 162.72705078 C76.18363176 164.01277823 73.99922191 165.30037565 71.81591797 166.58984375 C68.9850474 168.26176731 66.15156379 169.92910981 63.31640625 171.59375 C59.43787522 173.87123418 55.56184386 176.1529005 51.6875 178.4375 C54.96847282 181.16285098 58.24606932 183.46969711 61.94921875 185.58203125 C63.48376709 186.46193726 63.48376709 186.46193726 65.04931641 187.35961914 C66.69552979 188.29535767 66.69552979 188.29535767 68.375 189.25 C69.53590575 189.91417579 70.69654553 190.57881665 71.85693359 191.24389648 C74.26701977 192.62472404 76.67823297 194.00355121 79.09033203 195.38085938 C84.67385189 198.57079865 90.24298128 201.78569799 95.8125 205 C96.88846436 205.62044189 97.96442871 206.24088379 99.07299805 206.88012695 C107.27780687 211.61450089 115.46254244 216.38262362 123.64013672 221.16381836 C129.94850659 224.84914708 136.27225573 228.50656718 142.60693359 232.14648438 C146.94081402 234.63968872 151.26680399 237.14642169 155.59277344 239.65332031 C158.59768451 241.38571934 161.61430712 243.09611859 164.6328125 244.8046875 C166.44319491 245.84811456 168.25311787 246.89233934 170.0625 247.9375 C171.29274902 248.62126709 171.29274902 248.62126709 172.54785156 249.31884766 C173.30291992 249.76019043 174.05798828 250.2015332 174.8359375 250.65625 C175.48739746 251.02685547 176.13885742 251.39746094 176.81005859 251.77929688 C180.39165539 254.94265258 182.39191639 258.37392999 183.06510735 263.07370567 C183.21920785 266.29040632 183.24756315 269.4863775 183.23339844 272.70678711 C183.24373611 273.92700562 183.25407379 275.14722412 183.26472473 276.40441895 C183.28908198 279.7326801 183.2959919 283.06010312 183.29500484 286.38839412 C183.2981434 289.87315414 183.32378107 293.35774871 183.34698486 296.84242249 C183.38747662 303.43309874 183.40786942 310.02367623 183.42095876 316.61445767 C183.43685203 324.12121607 183.47527736 331.62780694 183.51555204 339.13446796 C183.59785747 354.56876211 183.65200789 370.00302289 183.6875 385.4375 C185.11484951 384.9824123 186.54045978 384.52186762 187.96533203 384.05908203 C188.7594046 383.8032132 189.55347717 383.54734436 190.37161255 383.28372192 C211.55346769 375.5439027 228.0910325 354.95267458 237.49609375 335.2734375 C247.28798364 311.96552911 248.23623565 287.30229981 239.6875 263.4375 C234.24270573 250.1315314 226.66416123 238.75818403 216.6875 228.4375 C215.99527344 227.70789063 215.30304688 226.97828125 214.58984375 226.2265625 C206.46464277 218.2876536 196.46402777 213.05516024 186.6875 207.4375 C184.63245486 206.24671074 182.5777778 205.05528607 180.5234375 203.86328125 C175.03394123 200.68369664 169.53532986 197.52020867 164.03417969 194.36083984 C158.58111371 191.2269579 153.13460079 188.08173468 147.6875 184.9375 C145.53648541 183.69656765 143.38544367 182.45568236 141.234375 181.21484375 C135.59632879 177.96219006 129.95923189 174.70789384 124.32226562 171.45336914 C121.04374421 169.56131419 117.76417593 167.67108588 114.484375 165.78125 C110.99040348 163.76785174 107.50009698 161.74853951 104.015625 159.71875 C102.7395913 158.97915293 101.46355046 158.23956816 100.1875 157.5 C99.1459375 156.89285156 98.104375 156.28570312 97.03125 155.66015625 C93.03027139 153.57297908 91.54487469 154.96385943 87.83984375 157.1484375 Z M20.671875 195.91015625 C19.67897461 196.47371826 18.68607422 197.03728027 17.66308594 197.61791992 C16.59864258 198.23900635 15.53419922 198.86009277 14.4375 199.5 C13.33954102 200.12817627 12.24158203 200.75635254 11.11035156 201.40356445 C8.21294199 203.0657517 5.32247727 204.73871826 2.43603516 206.4197998 C-0.41478614 208.07906378 -3.27053116 209.72983358 -6.125 211.3828125 C-11.86532684 214.71536737 -17.59879905 218.0594594 -23.3125 221.4375 C-24.17475693 221.83325226 -25.03701385 222.22900452 -25.92539978 222.63674927 C-28.58732753 224.23683438 -28.58732753 224.23683438 -28.91377258 227.22795105 C-28.90266953 228.35824234 -28.89156647 229.48853363 -28.88012695 230.65307617 C-28.8797493 231.9341777 -28.87937164 233.21527924 -28.87898254 234.53520203 C-28.85344917 235.93363411 -28.82736919 237.33205631 -28.80078125 238.73046875 C-28.79145452 240.16106431 -28.78433774 241.59167585 -28.77934265 243.02229309 C-28.76026114 246.7857989 -28.71115255 250.54833821 -28.65582275 254.3114624 C-28.60465385 258.15217005 -28.58183379 261.99303404 -28.55664062 265.83398438 C-28.50303309 273.36892998 -28.41770868 280.90307952 -28.3125 288.4375 C-27.6245636 288.82134354 -26.9366272 289.20518707 -26.22784424 289.60066223 C-1.23525372 303.55232779 -1.23525372 303.55232779 9.9375 310.125 C10.9275 310.70443359 11.9175 311.28386719 12.9375 311.88085938 C20.51472867 316.31968185 20.51472867 316.31968185 23.24121094 318.17895508 C25.52476366 319.6206887 25.52476366 319.6206887 27.67114258 319.30053711 C30.19642976 318.21966894 32.55527239 316.97848117 34.94921875 315.62890625 C35.97781006 315.05140625 37.00640137 314.47390625 38.06616211 313.87890625 C39.70403687 312.94884766 39.70403687 312.94884766 41.375 312 C42.49463135 311.36835938 43.6142627 310.73671875 44.76782227 310.0859375 C57.28004881 303.05456324 57.28004881 303.05456324 69.57394409 295.65122986 C71.6875 294.4375 71.6875 294.4375 74.18370056 293.39770508 C77.15309167 292.01733855 79.31850142 290.71180138 81.6875 288.4375 C83.33947688 283.82279389 83.43753153 279.20028422 83.5078125 274.34375 C83.55019136 272.95094311 83.59340909 271.55816152 83.63742065 270.16540527 C83.71520871 267.24635587 83.74982908 264.33017776 83.76025391 261.41015625 C83.7773084 258.43422893 83.87385185 255.47868283 84.04736328 252.5078125 C85.40928918 236.20851971 85.40928918 236.20851971 79.46777344 221.80459595 C73.78792399 217.21967021 67.41649426 214.36570736 60.67498779 211.67364502 C56.65792144 210.01148707 53.05218016 207.87920629 49.359375 205.60546875 C48.18215767 204.92215881 47.00253774 204.24296785 45.8203125 203.56835938 C44.09017849 202.57443135 42.36020285 201.58020992 40.63378906 200.57983398 C38.87833037 199.56290631 37.1189153 198.55281778 35.359375 197.54296875 C34.3600293 196.96699951 33.36068359 196.39103027 32.33105469 195.79760742 C27.35836129 193.23915942 25.60564585 193.0715546 20.671875 195.91015625 Z M105.6875 239.4375 C105.68603344 240.19472162 105.68456688 240.95194324 105.68305588 241.73211098 C105.64599751 260.16053328 105.58699571 278.58876587 105.50359726 297.01703835 C105.46379493 305.92884242 105.43140852 314.84055804 105.41650391 323.75244141 C105.40349356 331.52042619 105.37654475 339.28821644 105.33288693 347.05609167 C105.31025812 351.16882623 105.29459016 355.28132073 105.29561615 359.39412308 C105.29636194 363.26678492 105.27844453 367.13891581 105.24633217 371.01144028 C105.23782699 372.43117094 105.23608749 373.85096112 105.24169731 375.27070618 C105.28721471 388.56283762 105.28721471 388.56283762 100.6875 393.4375 C98.75219727 395.08984375 98.75219727 395.08984375 96.69140625 396.375 C95.90137207 396.87128906 95.11133789 397.36757813 94.29736328 397.87890625 C89.43470421 400.78285532 84.54550673 403.63259668 79.625 406.4375 C77.29786457 407.77159483 74.97104053 409.10622101 72.64453125 410.44140625 C72.05875305 410.77717178 71.47297485 411.11293732 70.8694458 411.45887756 C65.16433736 414.73114599 59.48755554 418.05099118 53.8125 421.375 C44.46583205 426.84466417 35.06783714 432.22065965 25.65570068 437.5763855 C14.90039634 443.70100094 4.26151428 450.00538072 -6.3125 456.4375 C6.19549708 469.90405387 27.749465 477.47167192 45.76635742 478.56347656 C70.45439578 479.42981972 95.36751174 473.54063211 114.25 456.75 C115.742052 455.32587883 117.22340838 453.89035099 118.6875 452.4375 C119.55375 451.6125 120.42 450.7875 121.3125 449.9375 C122.09625 449.1125 122.88 448.2875 123.6875 447.4375 C124.57501953 446.54224609 124.57501953 446.54224609 125.48046875 445.62890625 C152.20906865 417.4527226 149.70248517 378.72007664 150.07376194 342.63825035 C150.16229002 334.17568633 150.32396635 325.72128676 150.58222157 317.26215971 C150.7587841 311.27284317 150.84984737 305.28573485 150.87945789 299.29391253 C150.89941387 295.72977694 150.95553542 292.17542147 151.10525703 288.6141777 C152.18179006 273.93610802 152.18179006 273.93610802 146.59174728 261.02902985 C141.41004959 256.85524049 135.71559766 254.18037487 129.58251762 251.69275284 C124.77920848 249.61008246 120.39490683 246.85330959 115.9375 244.125 C114.38210995 243.20900288 112.82514633 242.29566436 111.265625 241.38671875 C110.62012695 241.00862061 109.97462891 240.63052246 109.30957031 240.2409668 C107.69049517 239.28954479 107.69049517 239.28954479 105.6875 239.4375 Z M76.25390625 318.97265625 C75.30854004 319.52687256 74.36317383 320.08108887 73.38916016 320.65209961 C71.83527588 321.5668103 71.83527588 321.5668103 70.25 322.5 C68.04068293 323.79481418 65.83103651 325.08906651 63.62109375 326.3828125 C63.04911255 326.71786301 62.47713135 327.05291351 61.88781738 327.39811707 C55.87775369 330.91648661 49.84676965 334.39833198 43.8125 337.875 C42.73427979 338.49640869 41.65605957 339.11781738 40.54516602 339.75805664 C38.35344892 341.02100004 36.16163574 342.28377672 33.96972656 343.54638672 C29.62291749 346.05087817 25.27757128 348.55790065 20.93237305 351.06518555 C18.76989459 352.31295075 16.607297 353.5605095 14.44458008 354.80786133 C8.98858189 357.95471592 3.53400542 361.10399074 -1.91796875 364.2578125 C-6.25542774 366.76687952 -10.59681794 369.26892522 -14.94140625 371.765625 C-19.23364811 374.23262738 -23.50954465 376.7253519 -27.77734375 379.234375 C-29.83051814 380.42744657 -31.88389494 381.62016989 -33.9375 382.8125 C-34.86715576 383.36631348 -35.79681152 383.92012695 -36.75463867 384.49072266 C-43.25915841 388.23949479 -48.02681608 390.15094328 -55.64453125 388.8828125 C-60.75641091 386.86854682 -65.30143549 384.14340835 -70 381.3125 C-72.14896593 380.03775736 -74.29873875 378.76437425 -76.44921875 377.4921875 C-77.57118652 376.82670898 -78.6931543 376.16123047 -79.84912109 375.47558594 C-85.0467384 372.40619486 -90.2959303 369.42706982 -95.54318237 366.44363403 C-104.87155843 361.13899202 -114.17338245 355.79131252 -123.4375 350.375 C-124.39164795 349.81868896 -125.3457959 349.26237793 -126.32885742 348.68920898 C-131.11089126 345.89992332 -135.88633857 343.10028615 -140.64916992 340.27836609 C-143.05300475 338.85670737 -145.4616762 337.44338391 -147.87127686 336.03152466 C-149.59374235 335.01838548 -151.30988094 333.99451434 -153.02587891 332.97045898 C-154.06534668 332.36274658 -155.10481445 331.75503418 -156.17578125 331.12890625 C-157.09657471 330.58435791 -158.01736816 330.03980957 -158.96606445 329.47875977 C-161.38834934 328.08842282 -161.38834934 328.08842282 -164.3125 329.4375 C-166.81489927 356.76099476 -160.9002761 382.20534936 -143.3034668 403.77294922 C-141.9882827 405.34062503 -140.65121222 406.88986754 -139.3125 408.4375 C-138.72984375 409.12199219 -138.1471875 409.80648437 -137.546875 410.51171875 C-122.31903936 427.0085407 -98.51945938 437.16334449 -76.33398438 438.56225586 C-48.23183535 439.62103401 -27.20137718 429.35723218 -3.3125 415.4375 C-2.31653809 414.8590332 -1.32057617 414.28056641 -0.29443359 413.68457031 C3.62730461 411.40541427 7.54620019 409.12154535 11.45947266 406.82788086 C19.13028361 402.33195064 26.83821711 397.90319254 34.5625 393.5 C47.04990436 386.38074119 59.50692687 379.21039938 71.95043945 372.01464844 C75.19130105 370.14719987 78.43992847 368.29325516 81.6875 366.4375 C81.6875 349.9375 81.6875 333.4375 81.6875 316.4375 C79.72002675 316.4375 77.89039779 318.00996771 76.25390625 318.97265625 Z " fill="#000000" transform="translate(229.3125,-0.4375)"/>
</svg>
